<svg xmlns="http://www.w3.org/2000/svg" viewBox="0 0 162.73 29.25"><defs><style>.cls-1{fill:#838c95;}.cls-2{fill:#f05325;}.cls-3{fill:#f15c24;}.cls-4{fill:#f16523;}.cls-5{fill:#f36d24;}.cls-6{fill:#f58220;}.cls-7{fill:#f79520;}.cls-8{fill:#f99f1d;}</style></defs><title>Asset 1</title><g id="Layer_2" data-name="Layer 2"><g id="Layer_1-2" data-name="Layer 1"><path class="cls-1" d="M160.63,11.54a10.16,10.16,0,0,0-7.57-3.61A10.05,10.05,0,0,0,146,11a10.61,10.61,0,0,0-2.58,7.44,10.33,10.33,0,0,0,2.22,7.35,9.94,9.94,0,0,0,7.44,3.2,10.11,10.11,0,0,0,7.07-3.09,10.57,10.57,0,0,0,2.6-7.46A10.42,10.42,0,0,0,160.63,11.54Zm-7.57,13.59c-2.8,0-5.08-2.7-5.08-6.66s2.28-6.66,5.08-6.66,5.08,2.71,5.08,6.66S155.87,25.13,153.06,25.13Z"/><path class="cls-1" d="M76.59,17.1a8.22,8.22,0,0,0-.4-2.36v0a9.88,9.88,0,0,0-2.91-5,8.63,8.63,0,0,0-5.12-1.77,8.41,8.41,0,0,0-3.46.63,7,7,0,0,0-.82.39,5.07,5.07,0,0,0-1.48,1.24,6.37,6.37,0,0,0-.44.62V0H57.1V28.62H62V26.36a5.12,5.12,0,0,0,1.92,1.86,7,7,0,0,0,.82.39,8.24,8.24,0,0,0,3.46.63,8.63,8.63,0,0,0,5.12-1.77,9.41,9.41,0,0,0,2.91-5v0a9.73,9.73,0,0,0,.37-2.21c0-.55,0-1.11,0-1.7S76.61,17.55,76.59,17.1Zm-5.35,3.59c-.41,1.38-1.92,4.45-4.64,4.45A5.11,5.11,0,0,1,62,20.73V16.09a4.68,4.68,0,0,1,9.25-.22,9.06,9.06,0,0,1,.34,2.36s0,.13,0,.28A8.91,8.91,0,0,1,71.24,20.69Z"/><path class="cls-1" d="M99.37,17.1A8.6,8.6,0,0,0,99,14.74v0a9.93,9.93,0,0,0-2.9-5,8.63,8.63,0,0,0-5.13-1.77,8.41,8.41,0,0,0-3.46.63,7.8,7.8,0,0,0-.82.39,5.07,5.07,0,0,0-1.48,1.24c-.16.2-.3.41-.44.62V0H79.87V28.62h4.86V26.36a5.19,5.19,0,0,0,1.92,1.86,7.8,7.8,0,0,0,.82.39,8.24,8.24,0,0,0,3.46.63,8.63,8.63,0,0,0,5.13-1.77,9.39,9.39,0,0,0,2.9-5v0a9.22,9.22,0,0,0,.38-2.21c0-.55,0-1.11,0-1.7S99.38,17.55,99.37,17.1Zm-5.05,1.41A9,9,0,0,1,94,20.69c-.4,1.38-1.92,4.45-4.63,4.45a5.12,5.12,0,0,1-4.65-4.41V16.09A4.68,4.68,0,0,1,94,15.87a9.06,9.06,0,0,1,.34,2.36Z"/><path class="cls-1" d="M53.06,26c-.15-.74-.12-13.12-.12-13.12,0-6.6-16.15-6.6-16.15,0l-.2,1.34c1.55.08,3.09-.08,4.64,0,0-3.77,6.89-3.56,6.89.22v1.7l-4.59,0a12.45,12.45,0,0,0-3.34.63A7.26,7.26,0,0,0,37.72,18a6.13,6.13,0,0,0-1.9,2.77A6.55,6.55,0,0,0,36.49,26c1.12,1.9,3,2.94,5.79,3.06h.38a8.75,8.75,0,0,0,4.23-1.05c.71-.38,1.3-.84,1.3-1.27,0-1.1.23,1.78.4,1.78h4.63A22.48,22.48,0,0,0,53.06,26Zm-4.93-5.14a3.83,3.83,0,0,1-.08.68,4.63,4.63,0,0,1-.89,2.55l-.18.2a4,4,0,0,1-2.88,1.17h-.17a3.7,3.7,0,0,1-2.31-.59l-.1-.07a2.55,2.55,0,0,1-1-2v-.18A3.37,3.37,0,0,1,42,19.83l.14-.09a2.66,2.66,0,0,1,1.4-.38h4.57C48.13,19.89,48.15,20.36,48.13,20.85Z"/><rect class="cls-1" x="102.64" y="8.37" width="5.09" height="20.22"/><rect class="cls-1" x="102.74" y="0.08" width="4.89" height="4.71"/><rect class="cls-1" x="134.26" y="8.37" width="5.09" height="20.22"/><rect class="cls-1" x="134.36" y="0.08" width="4.89" height="4.71"/><path class="cls-1" d="M118.41,12.22V23.59a2,2,0,0,0,1,1.44h2.82v3.35l-1,.4H117a4.71,4.71,0,0,1-3.4-3.39V12.22h-3.28V8.37h3.28V2.88h4.78V8.37h4.3v3.85Z"/><rect class="cls-1" x="125.59" y="23.9" width="4.95" height="4.69"/><rect class="cls-2" y="21.35" width="7.12" height="7.12"/><rect class="cls-3" x="7.12" y="21.35" width="7.12" height="7.12"/><rect class="cls-4" x="14.24" y="21.35" width="7.12" height="7.12"/><rect class="cls-5" x="21.35" y="21.35" width="7.12" height="7.12"/><rect class="cls-3" y="14.24" width="7.12" height="7.12"/><rect class="cls-4" x="7.12" y="14.24" width="7.12" height="7.12"/><rect class="cls-5" x="14.24" y="14.24" width="7.12" height="7.12"/><rect class="cls-6" x="21.35" y="14.24" width="7.12" height="7.12"/><rect class="cls-4" y="7.12" width="7.12" height="7.12"/><rect class="cls-5" x="7.12" y="7.12" width="7.12" height="7.12"/><rect class="cls-6" x="14.24" y="7.12" width="7.12" height="7.12"/><rect class="cls-7" x="21.35" y="7.12" width="7.12" height="7.12"/><rect class="cls-5" width="7.12" height="7.12"/><rect class="cls-6" x="7.12" width="7.12" height="7.12"/><rect class="cls-7" x="14.24" width="7.12" height="7.12"/><rect class="cls-8" x="21.35" width="7.12" height="7.12"/></g></g></svg>