<svg width="323" height="213" viewBox="0 0 323 213" fill="none" xmlns="http://www.w3.org/2000/svg">
<path d="M15.3145 101.714C6.85653 101.714 8.17631e-08 94.8577 1.82623e-07 86.3998L1.0238e-06 15.8605C1.12466e-06 7.40257 6.85651 0.546059 15.3144 0.546059L211.618 0.546061L211.618 86.3998C211.618 94.8577 204.761 101.714 196.303 101.714L15.3145 101.714Z" fill="url(#paint0_linear_27_278)"/>
<rect x="221.827" y="0.546021" width="100.944" height="100.944" rx="15.3144" fill="#FFAA0F"/>
<path d="M34.4387 55.3814L50.9193 60.947V69.2413L27.0089 59.5151V53.3551L34.4387 55.3814ZM50.9193 50.8695L34.4116 56.5432L27.0089 58.4884V52.3284L50.9193 42.6022V50.8695ZM65.5087 30.9307V72.4294H56.4038V30.9307H65.5087ZM64.428 56.8133L62.2936 56.8674C62.2936 54.814 62.5458 52.9228 63.0501 51.1937C63.5544 49.4646 64.2749 47.9606 65.2115 46.6818C66.1481 45.403 67.2738 44.4123 68.5886 43.7099C69.9035 43.0074 71.3624 42.6562 72.9655 42.6562C74.4064 42.6562 75.7212 42.8633 76.91 43.2776C78.1168 43.6919 79.1524 44.3583 80.017 45.2769C80.8996 46.1955 81.575 47.3933 82.0433 48.8702C82.5296 50.3472 82.7728 52.1483 82.7728 54.2737V72.4294H73.6139V54.2197C73.6139 53.0309 73.4428 52.1123 73.1005 51.4639C72.7763 50.7975 72.308 50.3382 71.6956 50.086C71.0832 49.8158 70.3358 49.6807 69.4532 49.6807C68.3905 49.6807 67.526 49.8608 66.8595 50.2211C66.1931 50.5813 65.6798 51.0856 65.3195 51.7341C64.9773 52.3645 64.7432 53.1119 64.6171 53.9765C64.491 54.8411 64.428 55.7867 64.428 56.8133ZM103.225 43.1966V49.5186H85.6096V43.1966H103.225ZM89.311 35.9289H98.4158V62.8922C98.4158 63.6667 98.5059 64.2701 98.686 64.7024C98.8661 65.1167 99.1723 65.4139 99.6046 65.594C100.055 65.7561 100.649 65.8371 101.388 65.8371C101.91 65.8371 102.342 65.8281 102.685 65.8101C103.027 65.7741 103.351 65.7291 103.657 65.675V72.1862C102.883 72.4384 102.072 72.6275 101.226 72.7536C100.379 72.8977 99.4785 72.9697 98.5239 72.9697C96.5787 72.9697 94.9126 72.6635 93.5257 72.0511C92.1568 71.4387 91.1121 70.4751 90.3917 69.1603C89.6712 67.8454 89.311 66.1343 89.311 64.027V35.9289ZM116.031 49.3835V72.4294H106.926V43.1966H115.464L116.031 49.3835ZM114.923 56.8133L112.843 56.8674C112.843 54.814 113.086 52.9228 113.573 51.1937C114.059 49.4646 114.779 47.9606 115.734 46.6818C116.689 45.403 117.859 44.4123 119.246 43.7099C120.651 43.0074 122.272 42.6562 124.109 42.6562C125.388 42.6562 126.55 42.8543 127.595 43.2506C128.639 43.6288 129.54 44.2322 130.296 45.0608C131.053 45.8713 131.629 46.934 132.025 48.2488C132.44 49.5456 132.647 51.1036 132.647 52.9228V72.4294H123.542V54.0846C123.542 52.8418 123.398 51.9052 123.11 51.2748C122.84 50.6444 122.443 50.2211 121.921 50.0049C121.399 49.7888 120.759 49.6807 120.003 49.6807C119.21 49.6807 118.499 49.8608 117.868 50.2211C117.238 50.5813 116.698 51.0856 116.247 51.7341C115.815 52.3645 115.482 53.1119 115.248 53.9765C115.032 54.8411 114.923 55.7867 114.923 56.8133ZM131.62 56.8133L129.081 56.8674C129.081 54.814 129.306 52.9228 129.756 51.1937C130.224 49.4646 130.918 47.9606 131.836 46.6818C132.773 45.403 133.935 44.4123 135.322 43.7099C136.709 43.0074 138.321 42.6562 140.158 42.6562C141.491 42.6562 142.715 42.8543 143.832 43.2506C144.949 43.6468 145.912 44.2863 146.723 45.1688C147.533 46.0514 148.164 47.2222 148.614 48.6811C149.064 50.122 149.29 51.9052 149.29 54.0305V72.4294H140.158V54.0305C140.158 52.8238 140.014 51.9142 139.725 51.3018C139.455 50.6714 139.059 50.2481 138.537 50.032C138.014 49.7978 137.393 49.6807 136.672 49.6807C135.808 49.6807 135.06 49.8608 134.43 50.2211C133.8 50.5813 133.268 51.0856 132.836 51.7341C132.422 52.3645 132.116 53.1119 131.917 53.9765C131.719 54.8411 131.62 55.7867 131.62 56.8133ZM164.122 30.9307V72.4294H154.99V30.9307H164.122ZM186.601 56.4621L170.174 50.8965V42.6292L193.949 52.3555V58.5424L186.601 56.4621ZM170.174 61.001L186.601 55.3004L193.949 53.3821V59.5421L170.174 69.2683V61.001Z" fill="#F1F3F3"/>
<path d="M251.025 51.13H293.798" stroke="#F1F3F3" stroke-width="8.1213" stroke-linecap="round" stroke-linejoin="round"/>
<path d="M272.412 29.744L293.798 51.13L272.412 72.5161" stroke="#F1F3F3" stroke-width="8.1213" stroke-linecap="round" stroke-linejoin="round"/>
<rect x="4.87278" y="115.868" width="91.4226" height="91.4226" rx="10.4417" fill="#F37021" stroke="#CFCFCF" stroke-width="9.74556"/>
<rect x="5.58154" y="116.577" width="90.2301" height="90.2301" rx="9.74556" fill="#FF500F"/>
<path d="M74.5612 143.249L40.9545 176.856L25.6787 161.58" stroke="#F1F3F3" stroke-width="10.7108" stroke-linecap="round" stroke-linejoin="round"/>
<path d="M307.217 110.996C315.675 110.996 322.531 117.852 322.531 126.31L322.531 196.849C322.531 205.307 315.675 212.164 307.217 212.164L110.913 212.164L110.913 126.31C110.913 117.852 117.77 110.996 126.228 110.996L307.217 110.996Z" fill="url(#paint1_linear_27_278)"/>
<path d="M143.105 134.999V159.095H137.818V134.999H143.105ZM142.477 150.027L141.238 150.059C141.238 148.866 141.384 147.768 141.677 146.764C141.97 145.76 142.388 144.887 142.932 144.144C143.476 143.402 144.13 142.827 144.893 142.419C145.656 142.011 146.504 141.807 147.434 141.807C148.271 141.807 149.035 141.927 149.725 142.168C150.425 142.408 151.027 142.795 151.529 143.329C152.041 143.862 152.433 144.558 152.705 145.415C152.988 146.273 153.129 147.319 153.129 148.553V159.095H147.811V148.521C147.811 147.831 147.712 147.298 147.513 146.921C147.325 146.534 147.053 146.268 146.697 146.121C146.341 145.964 145.907 145.886 145.395 145.886C144.778 145.886 144.276 145.99 143.889 146.2C143.502 146.409 143.204 146.702 142.995 147.078C142.796 147.444 142.66 147.878 142.587 148.38C142.514 148.882 142.477 149.431 142.477 150.027ZM164.283 159.408C162.902 159.408 161.668 159.194 160.58 158.765C159.493 158.326 158.572 157.725 157.819 156.961C157.077 156.198 156.507 155.319 156.11 154.326C155.723 153.332 155.529 152.281 155.529 151.172V150.576C155.529 149.332 155.702 148.181 156.047 147.125C156.392 146.058 156.904 145.128 157.584 144.333C158.264 143.538 159.116 142.921 160.141 142.482C161.166 142.032 162.358 141.807 163.718 141.807C164.921 141.807 165.998 142.001 166.95 142.387C167.901 142.774 168.707 143.329 169.365 144.05C170.035 144.772 170.542 145.645 170.887 146.67C171.243 147.695 171.42 148.845 171.42 150.121V152.271H157.553V148.961H166.259V148.553C166.27 147.988 166.17 147.507 165.961 147.109C165.763 146.712 165.47 146.409 165.083 146.2C164.696 145.99 164.225 145.886 163.671 145.886C163.096 145.886 162.62 146.011 162.243 146.262C161.877 146.513 161.59 146.858 161.381 147.298C161.182 147.726 161.041 148.223 160.957 148.788C160.873 149.353 160.831 149.949 160.831 150.576V151.172C160.831 151.8 160.915 152.37 161.082 152.882C161.26 153.395 161.511 153.834 161.835 154.2C162.17 154.556 162.568 154.833 163.028 155.032C163.498 155.23 164.032 155.33 164.628 155.33C165.349 155.33 166.061 155.194 166.761 154.922C167.462 154.65 168.063 154.2 168.565 153.573L170.966 156.428C170.62 156.919 170.129 157.395 169.491 157.855C168.863 158.315 168.11 158.692 167.232 158.985C166.353 159.267 165.37 159.408 164.283 159.408ZM179.154 134.999V159.095H173.852V134.999H179.154ZM188.002 134.999V159.095H182.7V134.999H188.002ZM190.606 150.78V150.451C190.606 149.206 190.784 148.061 191.14 147.015C191.495 145.959 192.018 145.044 192.708 144.27C193.399 143.496 194.251 142.895 195.265 142.466C196.28 142.027 197.451 141.807 198.779 141.807C200.118 141.807 201.295 142.027 202.309 142.466C203.334 142.895 204.192 143.496 204.882 144.27C205.572 145.044 206.095 145.959 206.45 147.015C206.806 148.061 206.984 149.206 206.984 150.451V150.78C206.984 152.014 206.806 153.16 206.45 154.216C206.095 155.262 205.572 156.177 204.882 156.961C204.192 157.735 203.339 158.336 202.325 158.765C201.31 159.194 200.139 159.408 198.811 159.408C197.483 159.408 196.306 159.194 195.281 158.765C194.256 158.336 193.399 157.735 192.708 156.961C192.018 156.177 191.495 155.262 191.14 154.216C190.784 153.16 190.606 152.014 190.606 150.78ZM195.893 150.451V150.78C195.893 151.418 195.94 152.014 196.034 152.569C196.128 153.123 196.285 153.609 196.505 154.028C196.724 154.435 197.022 154.754 197.399 154.984C197.775 155.215 198.246 155.33 198.811 155.33C199.365 155.33 199.825 155.215 200.191 154.984C200.568 154.754 200.866 154.435 201.085 154.028C201.305 153.609 201.462 153.123 201.556 152.569C201.65 152.014 201.697 151.418 201.697 150.78V150.451C201.697 149.834 201.65 149.253 201.556 148.71C201.462 148.155 201.305 147.669 201.085 147.251C200.866 146.822 200.568 146.487 200.191 146.247C199.815 146.006 199.344 145.886 198.779 145.886C198.225 145.886 197.76 146.006 197.383 146.247C197.017 146.487 196.724 146.822 196.505 147.251C196.285 147.669 196.128 148.155 196.034 148.71C195.94 149.253 195.893 149.834 195.893 150.451ZM222.499 154.043L225.636 142.121H228.946L227.77 148.098L224.664 159.095H222.012L222.499 154.043ZM221.259 142.121L223.205 153.949L223.424 159.095H220.208L216.192 142.121H221.259ZM231.739 153.698L233.7 142.121H238.767L234.782 159.095H231.566L231.739 153.698ZM229.323 142.121L232.492 154.012L232.978 159.095H230.295L227.252 148.129L226.123 142.121H229.323ZM240.022 150.78V150.451C240.022 149.206 240.199 148.061 240.555 147.015C240.911 145.959 241.433 145.044 242.124 144.27C242.814 143.496 243.666 142.895 244.681 142.466C245.695 142.027 246.867 141.807 248.195 141.807C249.533 141.807 250.71 142.027 251.724 142.466C252.749 142.895 253.607 143.496 254.297 144.27C254.987 145.044 255.51 145.959 255.866 147.015C256.221 148.061 256.399 149.206 256.399 150.451V150.78C256.399 152.014 256.221 153.16 255.866 154.216C255.51 155.262 254.987 156.177 254.297 156.961C253.607 157.735 252.755 158.336 251.74 158.765C250.726 159.194 249.554 159.408 248.226 159.408C246.898 159.408 245.721 159.194 244.696 158.765C243.672 158.336 242.814 157.735 242.124 156.961C241.433 156.177 240.911 155.262 240.555 154.216C240.199 153.16 240.022 152.014 240.022 150.78ZM245.308 150.451V150.78C245.308 151.418 245.355 152.014 245.449 152.569C245.544 153.123 245.7 153.609 245.92 154.028C246.14 154.435 246.438 154.754 246.814 154.984C247.191 155.215 247.661 155.33 248.226 155.33C248.78 155.33 249.241 155.215 249.607 154.984C249.983 154.754 250.281 154.435 250.501 154.028C250.72 153.609 250.877 153.123 250.971 152.569C251.066 152.014 251.113 151.418 251.113 150.78V150.451C251.113 149.834 251.066 149.253 250.971 148.71C250.877 148.155 250.72 147.669 250.501 147.251C250.281 146.822 249.983 146.487 249.607 146.247C249.23 146.006 248.759 145.886 248.195 145.886C247.64 145.886 247.175 146.006 246.799 146.247C246.433 146.487 246.14 146.822 245.92 147.251C245.7 147.669 245.544 148.155 245.449 148.71C245.355 149.253 245.308 149.834 245.308 150.451ZM264.086 146.325V159.095H258.799V142.121H263.741L264.086 146.325ZM269.106 141.995L269.012 146.905C268.803 146.885 268.52 146.858 268.165 146.827C267.809 146.796 267.511 146.78 267.271 146.78C266.654 146.78 266.12 146.853 265.671 147C265.231 147.136 264.865 147.345 264.572 147.627C264.29 147.899 264.081 148.244 263.945 148.662C263.819 149.081 263.762 149.567 263.772 150.121L262.815 149.494C262.815 148.354 262.925 147.319 263.145 146.388C263.375 145.447 263.699 144.636 264.117 143.956C264.536 143.266 265.043 142.738 265.639 142.372C266.235 141.995 266.905 141.807 267.647 141.807C267.909 141.807 268.165 141.823 268.416 141.854C268.677 141.885 268.907 141.933 269.106 141.995ZM276.511 134.999V159.095H271.208V134.999H276.511ZM289.531 155.204V134.999H294.849V159.095H290.08L289.531 155.204ZM279.115 150.812V150.482C279.115 149.196 279.256 148.025 279.538 146.968C279.821 145.901 280.239 144.986 280.793 144.223C281.348 143.449 282.038 142.853 282.864 142.435C283.69 142.016 284.642 141.807 285.719 141.807C286.681 141.807 287.523 142.032 288.245 142.482C288.966 142.921 289.583 143.538 290.096 144.333C290.608 145.128 291.027 146.058 291.351 147.125C291.675 148.181 291.921 149.321 292.088 150.545V150.937C291.921 152.088 291.675 153.175 291.351 154.2C291.027 155.215 290.608 156.114 290.096 156.898C289.583 157.683 288.961 158.3 288.229 158.749C287.507 159.189 286.66 159.408 285.688 159.408C284.61 159.408 283.659 159.194 282.833 158.765C282.017 158.336 281.332 157.735 280.778 156.961C280.234 156.187 279.821 155.277 279.538 154.232C279.256 153.186 279.115 152.046 279.115 150.812ZM284.401 150.482V150.812C284.401 151.45 284.443 152.04 284.527 152.584C284.61 153.128 284.752 153.609 284.95 154.028C285.16 154.435 285.431 154.754 285.766 154.984C286.111 155.215 286.535 155.33 287.037 155.33C287.717 155.33 288.276 155.168 288.715 154.843C289.165 154.519 289.495 154.059 289.704 153.463C289.923 152.867 290.017 152.166 289.986 151.361V150.121C290.007 149.431 289.96 148.825 289.845 148.302C289.73 147.768 289.547 147.324 289.296 146.968C289.055 146.613 288.747 146.346 288.37 146.168C288.004 145.98 287.57 145.886 287.068 145.886C286.577 145.886 286.158 146.001 285.813 146.231C285.479 146.461 285.207 146.785 284.997 147.204C284.788 147.611 284.637 148.098 284.543 148.662C284.448 149.217 284.401 149.823 284.401 150.482ZM143.105 172.999V197.095H137.818V172.999H143.105ZM142.477 188.027L141.238 188.059C141.238 186.866 141.384 185.768 141.677 184.764C141.97 183.76 142.388 182.887 142.932 182.144C143.476 181.402 144.13 180.827 144.893 180.419C145.656 180.011 146.504 179.807 147.434 179.807C148.271 179.807 149.035 179.927 149.725 180.168C150.425 180.408 151.027 180.795 151.529 181.329C152.041 181.862 152.433 182.558 152.705 183.415C152.988 184.273 153.129 185.319 153.129 186.553V197.095H147.811V186.521C147.811 185.831 147.712 185.298 147.513 184.921C147.325 184.534 147.053 184.268 146.697 184.121C146.341 183.964 145.907 183.886 145.395 183.886C144.778 183.886 144.276 183.99 143.889 184.2C143.502 184.409 143.204 184.702 142.995 185.078C142.796 185.444 142.66 185.878 142.587 186.38C142.514 186.882 142.477 187.431 142.477 188.027ZM164.283 197.408C162.902 197.408 161.668 197.194 160.58 196.765C159.493 196.326 158.572 195.725 157.819 194.961C157.077 194.198 156.507 193.319 156.11 192.326C155.723 191.332 155.529 190.281 155.529 189.172V188.576C155.529 187.332 155.702 186.181 156.047 185.125C156.392 184.058 156.904 183.128 157.584 182.333C158.264 181.538 159.116 180.921 160.141 180.482C161.166 180.032 162.358 179.807 163.718 179.807C164.921 179.807 165.998 180.001 166.95 180.387C167.901 180.774 168.707 181.329 169.365 182.05C170.035 182.772 170.542 183.645 170.887 184.67C171.243 185.695 171.42 186.845 171.42 188.121V190.271H157.553V186.961H166.259V186.553C166.27 185.988 166.17 185.507 165.961 185.109C165.763 184.712 165.47 184.409 165.083 184.2C164.696 183.99 164.225 183.886 163.671 183.886C163.096 183.886 162.62 184.011 162.243 184.262C161.877 184.513 161.59 184.858 161.381 185.298C161.182 185.726 161.041 186.223 160.957 186.788C160.873 187.353 160.831 187.949 160.831 188.576V189.172C160.831 189.8 160.915 190.37 161.082 190.882C161.26 191.395 161.511 191.834 161.835 192.2C162.17 192.556 162.568 192.833 163.028 193.032C163.498 193.23 164.032 193.33 164.628 193.33C165.349 193.33 166.061 193.194 166.761 192.922C167.462 192.65 168.063 192.2 168.565 191.573L170.966 194.428C170.62 194.919 170.129 195.395 169.491 195.855C168.863 196.315 168.11 196.692 167.232 196.985C166.353 197.267 165.37 197.408 164.283 197.408ZM179.154 172.999V197.095H173.852V172.999H179.154ZM188.002 172.999V197.095H182.7V172.999H188.002ZM190.606 188.78V188.451C190.606 187.206 190.784 186.061 191.14 185.015C191.495 183.959 192.018 183.044 192.708 182.27C193.399 181.496 194.251 180.895 195.265 180.466C196.28 180.027 197.451 179.807 198.779 179.807C200.118 179.807 201.295 180.027 202.309 180.466C203.334 180.895 204.192 181.496 204.882 182.27C205.572 183.044 206.095 183.959 206.45 185.015C206.806 186.061 206.984 187.206 206.984 188.451V188.78C206.984 190.014 206.806 191.16 206.45 192.216C206.095 193.262 205.572 194.177 204.882 194.961C204.192 195.735 203.339 196.336 202.325 196.765C201.31 197.194 200.139 197.408 198.811 197.408C197.483 197.408 196.306 197.194 195.281 196.765C194.256 196.336 193.399 195.735 192.708 194.961C192.018 194.177 191.495 193.262 191.14 192.216C190.784 191.16 190.606 190.014 190.606 188.78ZM195.893 188.451V188.78C195.893 189.418 195.94 190.014 196.034 190.569C196.128 191.123 196.285 191.609 196.505 192.028C196.724 192.435 197.022 192.754 197.399 192.984C197.775 193.215 198.246 193.33 198.811 193.33C199.365 193.33 199.825 193.215 200.191 192.984C200.568 192.754 200.866 192.435 201.085 192.028C201.305 191.609 201.462 191.123 201.556 190.569C201.65 190.014 201.697 189.418 201.697 188.78V188.451C201.697 187.834 201.65 187.253 201.556 186.71C201.462 186.155 201.305 185.669 201.085 185.251C200.866 184.822 200.568 184.487 200.191 184.247C199.815 184.006 199.344 183.886 198.779 183.886C198.225 183.886 197.76 184.006 197.383 184.247C197.017 184.487 196.724 184.822 196.505 185.251C196.285 185.669 196.128 186.155 196.034 186.71C195.94 187.253 195.893 187.834 195.893 188.451ZM222.499 192.043L225.636 180.121H228.946L227.77 186.098L224.664 197.095H222.012L222.499 192.043ZM221.259 180.121L223.205 191.949L223.424 197.095H220.208L216.192 180.121H221.259ZM231.739 191.698L233.7 180.121H238.767L234.782 197.095H231.566L231.739 191.698ZM229.323 180.121L232.492 192.012L232.978 197.095H230.295L227.252 186.129L226.123 180.121H229.323ZM240.022 188.78V188.451C240.022 187.206 240.199 186.061 240.555 185.015C240.911 183.959 241.433 183.044 242.124 182.27C242.814 181.496 243.666 180.895 244.681 180.466C245.695 180.027 246.867 179.807 248.195 179.807C249.533 179.807 250.71 180.027 251.724 180.466C252.749 180.895 253.607 181.496 254.297 182.27C254.987 183.044 255.51 183.959 255.866 185.015C256.221 186.061 256.399 187.206 256.399 188.451V188.78C256.399 190.014 256.221 191.16 255.866 192.216C255.51 193.262 254.987 194.177 254.297 194.961C253.607 195.735 252.755 196.336 251.74 196.765C250.726 197.194 249.554 197.408 248.226 197.408C246.898 197.408 245.721 197.194 244.696 196.765C243.672 196.336 242.814 195.735 242.124 194.961C241.433 194.177 240.911 193.262 240.555 192.216C240.199 191.16 240.022 190.014 240.022 188.78ZM245.308 188.451V188.78C245.308 189.418 245.355 190.014 245.449 190.569C245.544 191.123 245.7 191.609 245.92 192.028C246.14 192.435 246.438 192.754 246.814 192.984C247.191 193.215 247.661 193.33 248.226 193.33C248.78 193.33 249.241 193.215 249.607 192.984C249.983 192.754 250.281 192.435 250.501 192.028C250.72 191.609 250.877 191.123 250.971 190.569C251.066 190.014 251.113 189.418 251.113 188.78V188.451C251.113 187.834 251.066 187.253 250.971 186.71C250.877 186.155 250.72 185.669 250.501 185.251C250.281 184.822 249.983 184.487 249.607 184.247C249.23 184.006 248.759 183.886 248.195 183.886C247.64 183.886 247.175 184.006 246.799 184.247C246.433 184.487 246.14 184.822 245.92 185.251C245.7 185.669 245.544 186.155 245.449 186.71C245.355 187.253 245.308 187.834 245.308 188.451ZM264.086 184.325V197.095H258.799V180.121H263.741L264.086 184.325ZM269.106 179.995L269.012 184.905C268.803 184.885 268.52 184.858 268.165 184.827C267.809 184.796 267.511 184.78 267.271 184.78C266.654 184.78 266.12 184.853 265.671 185C265.231 185.136 264.865 185.345 264.572 185.627C264.29 185.899 264.081 186.244 263.945 186.662C263.819 187.081 263.762 187.567 263.772 188.121L262.815 187.494C262.815 186.354 262.925 185.319 263.145 184.388C263.375 183.447 263.699 182.636 264.117 181.956C264.536 181.266 265.043 180.738 265.639 180.372C266.235 179.995 266.905 179.807 267.647 179.807C267.909 179.807 268.165 179.823 268.416 179.854C268.677 179.885 268.907 179.933 269.106 179.995ZM276.511 172.999V197.095H271.208V172.999H276.511ZM289.531 193.204V172.999H294.849V197.095H290.08L289.531 193.204ZM279.115 188.812V188.482C279.115 187.196 279.256 186.025 279.538 184.968C279.821 183.901 280.239 182.986 280.793 182.223C281.348 181.449 282.038 180.853 282.864 180.435C283.69 180.016 284.642 179.807 285.719 179.807C286.681 179.807 287.523 180.032 288.245 180.482C288.966 180.921 289.583 181.538 290.096 182.333C290.608 183.128 291.027 184.058 291.351 185.125C291.675 186.181 291.921 187.321 292.088 188.545V188.937C291.921 190.088 291.675 191.175 291.351 192.2C291.027 193.215 290.608 194.114 290.096 194.898C289.583 195.683 288.961 196.3 288.229 196.749C287.507 197.189 286.66 197.408 285.688 197.408C284.61 197.408 283.659 197.194 282.833 196.765C282.017 196.336 281.332 195.735 280.778 194.961C280.234 194.187 279.821 193.277 279.538 192.232C279.256 191.186 279.115 190.046 279.115 188.812ZM284.401 188.482V188.812C284.401 189.45 284.443 190.04 284.527 190.584C284.61 191.128 284.752 191.609 284.95 192.028C285.16 192.435 285.431 192.754 285.766 192.984C286.111 193.215 286.535 193.33 287.037 193.33C287.717 193.33 288.276 193.168 288.715 192.843C289.165 192.519 289.495 192.059 289.704 191.463C289.923 190.867 290.017 190.166 289.986 189.361V188.121C290.007 187.431 289.96 186.825 289.845 186.302C289.73 185.768 289.547 185.324 289.296 184.968C289.055 184.613 288.747 184.346 288.37 184.168C288.004 183.98 287.57 183.886 287.068 183.886C286.577 183.886 286.158 184.001 285.813 184.231C285.479 184.461 285.207 184.785 284.997 185.204C284.788 185.611 284.637 186.098 284.543 186.662C284.448 187.217 284.401 187.823 284.401 188.482Z" fill="#F1F3F3"/>
<defs>
<linearGradient id="paint0_linear_27_278" x1="6.03209e-07" y1="51.1301" x2="211.618" y2="51.1301" gradientUnits="userSpaceOnUse">
<stop stop-color="#FF500F"/>
<stop offset="1" stop-color="#F37021"/>
</linearGradient>
<linearGradient id="paint1_linear_27_278" x1="322.531" y1="161.58" x2="110.913" y2="161.58" gradientUnits="userSpaceOnUse">
<stop stop-color="#FF510F"/>
<stop offset="1" stop-color="#F36F20"/>
</linearGradient>
</defs>
</svg>
